<?xml version="1.0" standalone="no"?>
<!DOCTYPE svg PUBLIC "-//W3C//DTD SVG 20010904//EN"
 "http://www.w3.org/TR/2001/REC-SVG-20010904/DTD/svg10.dtd">
<svg version="1.0" xmlns="http://www.w3.org/2000/svg"
 width="130.000000pt" height="130.000000pt" viewBox="0 0 130.000000 130.000000"
 preserveAspectRatio="xMidYMid meet">
<metadata>
Created by potrace 1.11, written by Peter Selinger 2001-2013
</metadata>
<g transform="translate(0.000000,130.000000) scale(0.100000,-0.100000)"
fill="#000000" stroke="none">
<path d="M390 1224 c-19 -2 -72 -7 -117 -10 l-83 -6 0 -63 0 -62 -46 -7 c-26
-3 -59 -6 -75 -6 -15 0 -31 -4 -34 -10 -3 -5 12 -38 35 -73 l40 -64 0 -206 0
-206 54 -40 c55 -41 66 -63 66 -135 1 -50 33 -107 96 -168 83 -80 120 -90 314
-90 186 0 221 10 306 91 62 59 93 117 94 174 0 54 9 66 89 121 l71 49 0 136
c0 145 -15 206 -57 230 -17 10 -16 10 5 11 16 0 34 18 69 72 25 40 46 80 47
88 1 12 -19 17 -89 25 l-90 10 -3 61 -3 62 -52 6 c-63 7 -588 16 -637 10z
m250 -72 c0 -19 -3 -23 -9 -13 -7 11 -9 11 -14 0 -3 -8 -6 -2 -6 12 -1 14 2
29 5 32 12 12 24 -4 24 -31z m-210 -4 c0 -23 -3 -29 -9 -19 -7 11 -9 11 -14 0
-3 -8 -6 1 -6 19 -1 22 4 32 14 32 10 0 15 -10 15 -32z m62 7 c-2 -14 -6 -25
-7 -25 -1 0 -5 11 -7 25 -3 16 -1 25 7 25 8 0 10 -9 7 -25z m71 16 c3 8 6 1 6
-16 0 -21 -2 -26 -8 -16 -7 11 -9 11 -14 0 -3 -8 -6 0 -6 16 0 21 2 26 8 16 7
-11 9 -11 14 0z m166 -18 l-1 -28 -8 25 -8 25 -2 -25 -3 -25 -5 25 -5 25 -8
-25 -7 -25 -1 28 c-1 22 3 27 24 27 21 0 25 -5 24 -27z m71 16 c0 -6 -7 -17
-15 -25 -13 -14 -15 -13 -15 10 0 16 6 26 15 26 8 0 15 -5 15 -11z m62 -19
c-2 -16 -5 -30 -7 -30 -2 0 -5 14 -7 30 -3 19 0 30 7 30 7 0 10 -11 7 -30z
m78 -6 c0 -15 -6 -24 -15 -24 -15 0 -21 40 -9 53 12 11 24 -3 24 -29z m-651
-6 l-2 -33 -5 30 -5 30 -7 -30 -8 -30 -1 33 c-1 22 4 32 14 32 11 0 15 -10 14
-32z m71 7 c0 -16 -6 -25 -15 -25 -9 0 -15 9 -15 25 0 16 6 25 15 25 9 0 15
-9 15 -25z m649 -7 l-2 -33 -5 30 -5 30 -7 -30 -8 -30 -1 33 c-1 22 4 32 14
32 11 0 15 -10 14 -32z m-529 -203 l0 -115 30 0 c25 0 30 -4 30 -24 0 -20 -6
-24 -39 -30 -22 -3 -46 -9 -55 -12 -14 -5 -16 11 -16 145 l0 151 25 0 25 0 0
-115z m198 103 c7 -7 12 -25 12 -40 0 -23 -4 -28 -25 -28 -16 0 -25 6 -25 15
0 8 -9 15 -20 15 -18 0 -20 -7 -20 -85 0 -78 2 -85 20 -85 11 0 20 7 20 15 0
9 9 15 25 15 21 0 25 -5 25 -30 0 -19 -7 -33 -19 -40 -27 -14 -94 -13 -109 2
-8 8 -12 49 -12 117 0 124 9 141 75 141 22 0 46 -5 53 -12z m146 -4 c12 -12
16 -37 16 -107 0 -51 3 -101 6 -113 9 -34 -21 -56 -64 -48 -66 12 -72 23 -72
149 0 73 4 115 12 123 17 17 84 15 102 -4z m-421 -14 c11 -16 13 -48 9 -148
-2 -70 -5 -128 -6 -128 0 -1 -11 -5 -23 -8 -22 -7 -23 -5 -23 53 0 48 -3 61
-15 61 -12 0 -15 -14 -15 -68 0 -64 -2 -70 -25 -80 l-25 -12 0 157 c0 132 3
159 17 175 23 25 87 24 106 -2z m578 3 c10 -11 15 -57 17 -160 4 -165 2 -179
-28 -161 -18 12 -20 23 -20 144 0 123 -1 132 -20 137 -18 5 -20 -1 -22 -123
l-3 -127 -22 8 c-22 8 -23 12 -23 154 l0 145 54 0 c38 0 58 -5 67 -17z m-711
-23 c0 -26 -5 -31 -29 -36 -26 -5 -30 -11 -33 -48 -3 -22 -4 -42 -3 -44 1 -1
14 2 28 7 31 12 36 8 28 -30 -4 -18 -16 -35 -31 -42 -24 -12 -25 -16 -28 -127
-2 -88 -6 -118 -19 -132 -9 -10 -20 -18 -25 -18 -4 0 -8 96 -8 213 0 195 -2
214 -20 237 -27 35 -26 38 23 43 115 10 117 10 117 -23z m919 14 c2 -1 -7 -17
-19 -35 -21 -29 -26 -31 -67 -25 l-43 6 0 -44 c0 -40 3 -45 30 -55 46 -15 60
-60 60 -186 0 -101 -9 -145 -30 -145 -25 0 -95 63 -101 90 -9 41 -1 44 37 15
18 -14 35 -25 38 -25 3 0 6 38 6 85 0 84 0 85 -31 100 -17 9 -37 31 -45 50
-19 47 -18 135 2 164 15 21 21 22 88 16 39 -4 73 -9 75 -11z m-714 -336 c-69
-47 -96 -61 -102 -54 -11 11 22 39 72 62 72 34 87 29 30 -8z m-27 -136 c4 -24
12 -28 29 -11 7 7 13 7 17 1 10 -16 -30 -44 -53 -37 -25 8 -45 41 -37 62 9 22
40 11 44 -15z m418 14 c3 -8 1 -24 -6 -35 -12 -24 -61 -29 -79 -8 -14 18 -2
30 15 16 16 -13 37 -2 30 16 -4 12 6 22 27 24 4 1 10 -5 13 -13z m-189 -58
c23 -34 37 -45 71 -52 61 -14 51 -32 -16 -29 -8 1 -32 -28 -55 -64 l-40 -64
-41 65 c-23 37 -47 65 -56 64 -34 -3 -60 3 -60 12 0 6 8 10 19 10 33 0 80 21
86 39 6 21 42 61 55 61 5 0 21 -19 37 -42z m-362 -115 c9 -13 10 -23 3 -37 -5
-10 -8 -31 -6 -47 6 -40 -8 -36 -22 6 -11 32 -6 95 7 95 3 0 12 -8 18 -17z"/>
<path d="M921 1144 c0 -11 3 -14 6 -6 3 7 2 16 -1 19 -3 4 -6 -2 -5 -13z"/>
<path d="M341 1144 c0 -11 3 -14 6 -6 3 7 2 16 -1 19 -3 4 -6 -2 -5 -13z"/>
<path d="M760 910 c0 -73 3 -90 15 -90 12 0 15 17 15 90 0 73 -3 90 -15 90
-12 0 -15 -17 -15 -90z"/>
<path d="M330 945 c0 -23 5 -35 14 -35 8 0 15 14 18 35 3 29 1 35 -14 35 -14
0 -18 -8 -18 -35z"/>
</g>
</svg>
